<svg width="637" height="137" viewBox="0 0 637 137" fill="none" xmlns="http://www.w3.org/2000/svg">
<path d="M127.398 45.9112C127.814 45.9345 128.229 45.8459 128.599 45.655C128.968 45.464 129.278 45.1778 129.495 44.8269C129.987 44.0214 129.93 42.9722 129.353 42.0897L127.504 39.288C127.102 38.6759 126.496 38.2207 125.79 38.0006C125.91 37.3203 125.757 36.6206 125.363 36.0493L123.831 33.7267C123.426 33.1168 122.817 32.6669 122.109 32.4561C122.175 32.1208 122.173 31.7759 122.104 31.4413C122.034 31.1067 121.898 30.7889 121.704 30.5061L120.652 28.9148C120.418 28.5609 120.111 28.2593 119.752 28.0291C119.392 27.7989 118.988 27.6454 118.565 27.5784C117.26 27.3916 115.956 27.2184 114.652 27.0587C95.3586 7.4819 64.4782 2.1587 39.0471 15.957C22.6821 24.8341 11.8929 39.8217 8.01025 56.4511C6.98521 57.3238 6.20896 58.0299 5.68436 58.5201C5.20237 58.9789 4.92388 59.6068 4.90954 60.267L4.85269 62.8025C4.8338 63.4132 5.04728 64.0088 5.45121 64.4723C5.03091 64.928 4.79206 65.5181 4.77876 66.1337L4.70625 69.3809C4.6854 70.0011 4.90037 70.6066 5.30905 71.0787C4.88501 71.5405 4.64379 72.1371 4.62948 72.7597L4.50293 78.4023C4.47961 78.877 4.59621 79.3482 4.83863 79.7591C5.08106 80.17 5.43897 80.503 5.86918 80.7179C6.17236 80.8659 6.50611 80.9431 6.84447 80.9434C6.99743 80.9425 7.14987 80.9261 7.29941 80.8944C8.49183 87.7054 10.8304 94.2723 14.2187 100.324C31.0074 130.379 69.3446 141.332 99.8469 124.79C128.518 109.245 140.059 74.9352 127.398 45.9112Z" fill="white"/>
<path d="M94.1914 7.99174C95.1169 8.29432 96.0296 8.48343 96.9608 8.71457C99.3777 9.32674 101.749 9.84505 104.049 10.7486C109.273 12.8415 113.243 17.2555 115.357 22.4008C115.442 22.6042 115.596 22.7727 115.792 22.8782C115.987 22.9836 116.214 23.0197 116.434 22.9804C116.653 22.941 116.853 22.8286 116.998 22.662C117.144 22.4953 117.227 22.2844 117.234 22.0646C117.344 15.1332 112.518 8.68235 106.17 5.9381C104.874 5.35383 103.508 4.93034 102.106 4.67735C99.3222 4.23048 96.2983 4.5933 93.9312 6.17064C93.775 6.28108 93.6524 6.43154 93.5767 6.60572C93.5011 6.7799 93.4753 6.97115 93.5021 7.15875C93.5289 7.34635 93.6073 7.52315 93.7288 7.66998C93.8503 7.81682 94.0103 7.92809 94.1914 7.99174Z" fill="white"/>
<path d="M44.7169 35.2256C45.7832 30.9404 48.2484 26.9704 51.7472 24.2164C54.1825 22.3813 57.2704 21.2004 60.3612 21.5183C60.5767 21.5462 60.7797 21.6337 60.9467 21.7709C61.1137 21.908 61.2377 22.0891 61.3043 22.2929C61.3709 22.4968 61.3773 22.7151 61.3228 22.9225C61.2683 23.1298 61.1552 23.3177 60.9966 23.4641C59.0987 25.3034 56.9988 26.9872 55.1435 28.8209C53.8639 29.9947 52.727 31.311 51.7556 32.7433C58.7627 30.4903 65.9401 28.7885 73.2203 27.654C77.4939 26.9844 81.8158 26.5086 86.1861 26.2266C83.3981 24.3004 82.5224 21.8546 83.9938 20.5181C85.4027 19.2392 88.6285 19.4059 91.4548 20.6582C94.2101 21.8784 96.4307 24.0609 96.5132 25.9184C100.252 25.9352 104.012 26.0898 107.793 26.3821C95.2635 15.8029 78.398 10.5414 61.18 12.9788C61.1473 13.4733 59.0475 14.4147 55.7449 15.2202C52.4423 16.0257 50.1378 16.1419 49.8762 15.7189C32.3468 21.7999 19.3 35.4875 13.6829 51.9909C19.3697 47.8191 27.7576 42.4875 38.6875 37.7023C40.6779 36.8272 42.6877 36.0016 44.7169 35.2256ZM33.696 38.6941C30.419 42.2564 26.6942 42.8504 25.6692 40.6552C24.8702 38.9392 26.0289 35.9694 28.1088 33.7071C30.1887 31.4447 33.0776 30.0187 34.8888 30.6336C37.2147 31.4195 36.9801 35.1317 33.7017 38.6941H33.696Z" fill="white"/>
<path d="M126.606 56.5476C125.667 52.766 124.344 49.0867 122.66 45.565C117.314 45.241 111.975 45.1653 106.643 45.3381C110.803 50.7285 112.108 58.5186 111.971 65.0774C111.759 72.104 109.809 80.3633 104.62 85.4834C103.455 86.6419 102.048 87.5371 100.497 88.1072C100.144 89.1729 99.6496 90.1876 99.0254 91.1246C98.9088 91.2997 98.7411 91.5687 98.6075 91.7312C97.8017 92.803 96.8632 93.7714 95.8139 94.6141C95.6219 94.771 95.1371 95.1086 94.9324 95.2627L94.3168 95.6535L94.0083 95.8482L93.687 96.0219C93.0507 96.3811 92.3849 96.6871 91.6967 96.9367C91.238 97.1078 90.7699 97.2537 90.2948 97.3738C90.0887 97.441 89.7844 97.4774 89.5726 97.5222C89.089 97.6106 88.6005 97.671 88.1097 97.7029C87.9652 97.7169 87.82 97.6847 87.6955 97.611C87.571 97.5374 87.4738 97.4263 87.4183 97.294C87.3629 97.1618 87.352 97.0155 87.3874 96.8767C87.4229 96.738 87.5027 96.6141 87.615 96.5234C87.7245 96.4403 87.8555 96.3894 87.9931 96.3764C89.2802 96.1917 90.5271 95.7968 91.6824 95.2081C92.0726 95.0163 92.4522 94.8045 92.8198 94.5735L93.097 94.4054L93.3628 94.2177C94.6081 93.362 95.7092 92.3187 96.6256 91.126C97.2143 90.3525 97.7083 89.5132 98.0971 88.6255C98.2978 88.1641 98.4595 87.6871 98.5804 87.1994C98.6996 86.7269 98.7729 86.2442 98.7994 85.758C98.7994 85.6613 98.8108 85.5647 98.8108 85.4666C98.8278 83.7954 98.1326 82.5066 97.0052 81.7039C96.1167 81.0722 94.9608 80.7416 93.6728 80.7654C93.4004 80.7641 93.1282 80.7809 92.8582 80.8158C92.6193 80.8438 92.3819 80.8774 92.1473 80.9083C91.6708 81.0019 91.2 81.1216 90.737 81.2669C90.4043 81.3705 90.0744 81.4882 89.7503 81.6227C89.6565 81.6563 89.4973 81.7278 89.3352 81.8048L88.8845 82.0163C88.6073 82.1564 88.3159 82.3105 88.0457 82.4716C87.9533 82.5248 87.8609 82.5809 87.7728 82.6369C87.0446 83.087 86.3539 83.5934 85.707 84.1512C85.5578 84.2913 85.1526 84.6709 85.0062 84.8096C84.4774 85.3396 83.9915 85.9096 83.5532 86.5144C82.9218 87.376 82.4071 88.315 82.022 89.3077C81.9804 89.4358 81.9012 89.5488 81.7946 89.6327C81.6846 89.7191 81.5501 89.7694 81.4097 89.7766C81.2693 89.7839 81.1301 89.7477 81.0117 89.6731C80.8932 89.5985 80.8013 89.4893 80.749 89.3607C80.6966 89.2322 80.6865 89.0907 80.7198 88.9561L80.8961 88.2473C80.9929 87.8947 81.1097 87.5476 81.2458 87.2078C81.287 87.0924 81.3345 86.9793 81.388 86.8689C81.5861 86.4237 81.8092 85.9897 82.0562 85.5689C82.1723 85.354 82.3014 85.1464 82.4429 84.9469C82.7131 84.541 83.0045 84.1492 83.3158 83.773C84.3572 82.5147 85.5994 81.4317 86.9937 80.5665C86.671 79.9109 86.3767 79.2427 86.1122 78.5717C83.4878 71.6809 83.2959 64.0295 84.891 56.8838C85.7113 53.4237 87.0235 49.8194 89.1105 46.8174C87.0064 47.105 84.9095 47.4319 82.8196 47.798C80.1231 48.2705 77.4343 48.8098 74.753 49.4159C74.8951 49.556 75.0373 49.6961 75.1696 49.8362C80.2165 55.2911 81.9524 63.7269 81.9851 70.9133C81.9723 78.5422 79.8 88.4966 73.4109 93.429C70.4168 95.6829 66.6437 96.2307 63.2472 94.4782C57.4837 91.4944 54.6901 84.0335 53.7106 78.0884C52.5036 70.7564 53.2713 61.3777 57.1226 54.3875C53.8234 55.5082 50.5568 56.7274 47.323 58.0451C44.2763 59.2891 41.3817 60.5666 38.6422 61.8638C40.7349 63.0826 42.1651 65.4276 41.9447 68.3749C41.5865 73.17 37.1423 75.7602 33.163 74.5176C30.0566 73.5482 28.187 70.437 28.4102 67.3915C28.4174 67.2949 28.4273 67.1982 28.4387 67.1016C22.4466 70.4162 16.6871 74.1237 11.1993 78.199C11.4808 80.2112 11.8675 82.2078 12.358 84.1806C16.5221 100.9 27.6582 114.126 41.9703 121.597C42.3002 121.222 44.5564 121.676 47.6983 122.941C50.8402 124.205 52.7979 125.451 52.7425 125.941C62.7497 128.861 73.3647 129.107 83.5003 126.655C93.6359 124.202 102.928 119.139 110.425 111.985C110.14 111.575 111.278 109.593 113.487 107.024C115.696 104.455 117.468 103.039 117.934 103.222C127.111 90.0712 130.769 73.2667 126.606 56.5476ZM27.0881 101.526C25.1845 101.744 22.6809 99.7426 21.1341 97.0936C19.5873 94.4446 19.1096 91.2983 20.264 89.791C21.7426 87.8592 25.2513 89.2307 27.6781 93.3996C30.1049 97.5685 29.5291 101.246 27.0881 101.526ZM70.0017 103.371C67.727 105.289 64.2624 106.067 64.2624 106.067C62.7596 109.61 64.0335 110.718 65.0414 114.795C65.0928 114.991 65.1252 115.193 65.1381 115.396C65.2732 118.099 61.7161 118.605 59.7471 118.706C57.3146 118.829 54.8451 118.72 52.5036 118.059C47.812 116.733 43.7304 112.643 43.611 107.643C43.52 103.843 45.3496 100.188 47.4665 97.116C48.2518 95.982 49.1034 94.8941 50.017 93.8576C48.921 94.0819 47.8783 94.5097 46.9448 95.1184C46.9132 95.1393 46.88 95.1576 46.8453 95.173L46.5084 95.2599C46.3845 95.2911 46.254 95.2852 46.1336 95.2432C46.0131 95.2011 45.9081 95.1246 45.8319 95.0235C45.7557 94.9224 45.7117 94.8013 45.7055 94.6755C45.6994 94.5497 45.7315 94.4249 45.7975 94.3171C47.2263 91.9259 50.4663 90.815 53.1149 91.762C53.9654 92.0527 54.7369 92.5319 55.3697 93.1628C55.4718 93.274 55.535 93.4145 55.5499 93.5637C55.5649 93.7129 55.5309 93.8629 55.453 93.9917C55.375 94.1204 55.2571 94.2211 55.1167 94.2789C54.9763 94.3367 54.8208 94.3487 54.673 94.3129C53.7305 94.086 52.9429 93.8829 52.0572 93.789C51.9889 93.7806 51.915 93.7764 51.8539 93.7694C56.3294 106.151 65.7693 104.136 69.5994 102.705C69.6866 102.676 69.7816 102.676 69.8684 102.707C69.9552 102.738 70.0286 102.798 70.0761 102.876C70.1236 102.954 70.1425 103.046 70.1294 103.136C70.1164 103.226 70.0723 103.309 70.0046 103.371H70.0017ZM86.28 119.011C85.9033 120.862 83.195 122.596 80.1668 123.221C77.1386 123.845 73.9469 123.327 72.8493 121.779C71.4418 119.797 73.8446 116.931 78.6228 115.948C83.4011 114.964 86.7662 116.64 86.2829 119.011H86.28ZM123.621 75.9829C123.286 79.0185 121.801 81.844 119.97 82.3946C117.621 83.095 115.598 79.9627 116.124 75.1816C116.65 70.4006 119.31 67.7572 121.45 68.9479C123.122 69.8696 123.958 72.9431 123.621 75.9829Z" fill="white"/>
<path d="M39.5562 39.6268C27.162 45.0453 18.1186 51.167 12.628 55.4339C10.0804 57.4133 8.29901 58.9935 7.30383 59.9166L7.16166 60.0483C7.09288 60.1187 7.0542 60.2125 7.05361 60.3103L6.99673 62.8458C6.98852 62.8991 6.99563 62.9536 7.01724 63.0031C7.03885 63.0526 7.07411 63.0952 7.11901 63.1259C7.13749 63.1358 7.1574 63.1428 7.20148 63.1161C7.91421 62.5885 8.65157 62.0515 9.41359 61.5052C10.1131 61.0009 10.841 60.483 11.5973 59.9516C19.4251 54.4646 30.2882 47.7013 44.2478 42.0461C44.0859 40.5922 44.094 39.1248 44.2719 37.6727C42.6872 38.2946 41.1153 38.946 39.5562 39.6268ZM119.904 31.6561L118.855 30.0661C118.787 29.963 118.699 29.8746 118.595 29.8062C118.491 29.7379 118.375 29.6909 118.252 29.6683L116.917 29.4791C114.744 29.1822 112.575 28.9305 110.41 28.7241C105.525 28.2571 100.67 28.0237 95.845 28.0237H95.1839C93.5537 28.0321 91.9278 28.0657 90.3061 28.1245C84.6951 28.3315 79.1017 28.869 73.5558 29.7341C70.5172 30.2085 67.5013 30.7833 64.5082 31.4585C61.461 32.1431 58.4442 32.9289 55.4577 33.8161C53.6948 34.3401 51.9414 34.9004 50.1975 35.4972C49.4748 37.0491 48.9409 38.6798 48.6066 40.3553C50.4956 39.6567 52.3911 38.9965 54.2934 38.3745C58.7233 36.9316 63.1978 35.6998 67.7169 34.6791C75.3477 32.9538 83.1057 31.8296 90.9175 31.317C98.289 30.7975 105.69 30.8331 113.056 31.4235C115.032 31.5823 117.026 31.7817 119.038 32.0217L119.715 32.1057H119.722C119.85 32.1197 119.954 32.0987 119.984 32.0497C120.014 32.0007 120.024 31.8382 119.904 31.6561Z" fill="white"/>
<path d="M35.628 60.9476C39.0045 59.2989 42.627 57.6627 46.4911 56.0839C50.5932 54.4095 54.7493 52.8937 58.9594 51.5368C59.4873 50.8434 60.062 50.1859 60.6795 49.5686C63.7461 46.5498 68.0183 45.3143 71.9948 47.4085C72.1924 47.5108 72.3872 47.6214 72.5791 47.7363C75.8509 46.9649 79.1364 46.2892 82.4356 45.7093C85.2999 45.2078 88.1778 44.7796 91.0695 44.4247C91.7207 43.7572 92.4305 43.1478 93.1907 42.6036C96.098 40.6032 99.6949 40.1998 102.828 41.9564C103.511 42.3323 104.15 42.7789 104.736 43.2886C109.978 43.0645 115.235 43.0771 120.506 43.3265C122.466 43.4198 124.426 43.5464 126.387 43.7061C126.731 43.7341 127.077 43.7607 127.422 43.7915C127.479 43.7915 127.615 43.7999 127.658 43.7327C127.701 43.6655 127.696 43.4525 127.55 43.2354L125.702 40.4337C125.625 40.3155 125.524 40.2145 125.405 40.137C125.287 40.0596 125.153 40.0075 125.012 39.9841L124.395 39.921C122.18 39.6931 119.988 39.511 117.819 39.3747C67.8107 36.2354 29.6612 56.8222 11.6541 69.1188C11.0153 69.5539 10.4031 69.9784 9.81734 70.3921L9.76472 70.4299C9.65525 70.5056 9.54866 70.5826 9.44061 70.6583L8.82643 71.0953L8.67003 71.2074L8.40562 71.3979C7.88812 71.7715 7.39335 72.1334 6.92135 72.4836C6.8747 72.5261 6.83786 72.578 6.81334 72.6357C6.78881 72.6935 6.77716 72.7558 6.77918 72.8184L6.65267 78.468C6.64259 78.539 6.65282 78.6113 6.6822 78.6769C6.71159 78.7425 6.75896 78.7987 6.81899 78.8392C6.84458 78.8518 6.86591 78.863 6.93131 78.8112L6.97255 78.7776C8.06867 77.9034 9.3894 76.8906 10.9078 75.7728C16.8346 71.4516 23.0601 67.5431 29.539 64.0757C31.4696 63.0344 33.4993 61.9917 35.628 60.9476Z" fill="white"/>
<path d="M44.6942 44.4976C44.6856 44.4653 44.68 44.4317 44.6715 44.3995C33.1539 49.1292 22.2098 55.1144 12.0437 62.2434C11.5651 62.5778 11.0955 62.9102 10.6348 63.2408C9.89273 63.7713 9.17479 64.2947 8.48101 64.8112C7.99479 65.1712 7.51852 65.527 7.05932 65.8772C7.01622 65.9152 6.98194 65.9619 6.95887 66.0141C6.9358 66.0663 6.92448 66.1228 6.92566 66.1798L6.85173 69.4283C6.84385 69.4887 6.85296 69.55 6.87803 69.6056C6.90311 69.6611 6.94317 69.7089 6.99389 69.7435C7.01806 69.7561 7.03654 69.7659 7.09625 69.7225L7.17303 69.6679L7.60949 69.3541L7.7417 69.2588L8.07439 69.0221L8.1284 68.9843C9.32403 68.1438 10.6135 67.2458 11.9968 66.3227C22.7443 59.1814 34.2514 53.2186 46.3135 48.5404L46.3049 48.5278C45.5876 47.2614 45.0458 45.9059 44.6942 44.4976ZM123.562 37.1992L122.03 34.878C121.959 34.7685 121.865 34.6746 121.756 34.6023C121.646 34.5299 121.523 34.4807 121.393 34.4577C121.206 34.4311 121.02 34.4073 120.834 34.3821C120.375 34.3204 119.917 34.2612 119.458 34.2042C117.988 34.0174 116.526 33.8568 115.073 33.7223C110.37 33.2768 105.768 33.0667 101.283 33.0667C97.8226 33.0667 94.4281 33.1867 91.0994 33.4267C83.4198 33.9713 75.7966 35.1199 68.3027 36.8616C63.6879 37.9304 59.2508 39.1884 55.0042 40.5878C52.6897 41.3499 50.4326 42.1521 48.2327 42.9945C48.0936 44.5927 48.1045 46.2003 48.2654 47.7965C48.6398 47.6565 49.0156 47.5164 49.3929 47.3763C52.7566 46.1426 56.1359 45.0173 59.5309 44.0003C61.7762 43.3297 64.0272 42.7054 66.2839 42.1273C82.7168 37.9058 99.7178 36.2388 116.673 37.1866C118.796 37.3061 120.92 37.4658 123.045 37.6657L123.424 37.7007C123.47 37.7007 123.62 37.7147 123.663 37.6446C123.706 37.5746 123.696 37.4009 123.562 37.1992Z" fill="white"/>
<path d="M71.126 49.171C70.5651 48.8827 69.9688 48.6671 69.3518 48.5294C67.5164 48.1301 65.5232 48.4986 63.4888 49.9933C63.3907 50.0703 63.294 50.1473 63.1974 50.2272C62.6129 50.7115 62.0703 51.2429 61.5752 51.8158C61.1726 52.2811 60.7976 52.7689 60.4521 53.2768C59.0304 55.3585 58.0352 57.7735 57.3244 60.1634C55.1179 67.798 55.3766 76.9272 58.4247 84.3013C60.9695 90.542 66.8056 96.1132 73.0368 90.2072C77.963 85.2258 79.6206 77.6725 79.8509 70.8756C79.9405 65.0271 78.9766 58.9362 75.8831 53.8638C74.9206 52.306 73.7349 50.9346 72.3942 49.9526C71.9937 49.6587 71.5695 49.3973 71.126 49.171ZM73.5301 72.2961L67.7126 75.6048L73.5202 78.908C72.6189 83.4454 69.9248 86.7387 66.743 86.7387C62.822 86.7387 59.6431 81.7405 59.6431 75.5754C59.6431 69.4103 62.822 64.4135 66.743 64.4135C69.9376 64.4135 72.6387 67.7321 73.5301 72.2961Z" fill="white"/>
<path d="M100.832 83.9146C100.892 84.2452 100.931 84.5793 100.947 84.9148C103.299 83.57 105.318 80.9925 106.625 78.223C108.63 74.1381 109.571 69.5378 109.796 65.0033C110.009 59.3481 109.194 53.4253 106.297 48.4733C105.662 47.3631 104.875 46.3449 103.957 45.4475C103.582 45.0843 103.18 44.7495 102.754 44.4459C102.218 44.0614 101.636 43.7425 101.021 43.4961C99.2867 42.8125 97.3532 42.8265 95.3643 43.9542C95.3074 43.9864 95.2506 44.0172 95.1951 44.0523C94.6485 44.3861 94.1328 44.7667 93.654 45.1898C93.2296 45.5622 92.8311 45.9623 92.4612 46.3875C91.2798 47.7407 90.35 49.3292 89.5681 50.9878C85.9755 58.6084 85.4452 71.0283 89.5951 79.2848C89.9334 79.1602 90.2775 79.0467 90.6258 78.9486C90.8277 78.8912 91.031 78.8422 91.2357 78.7973C90.1424 76.902 89.4672 74.3076 89.4672 71.4443C89.4672 65.6406 92.2366 60.938 95.6529 60.938C98.4323 60.938 100.784 64.0521 101.563 68.3387L96.6723 71.1207L101.659 73.9574C101.269 76.6597 100.263 78.9514 98.9086 80.3789C99.8441 81.2348 100.531 82.4045 100.832 83.9146Z" fill="white"/>
<path d="M4.69794 79.4753C4.69794 79.4753 5.83529 82.1369 9.81601 82.8373V80.4404" fill="white"/>
<path d="M129.734 44.2988C129.734 44.2988 129.296 46.6494 127.062 47.8009C124.829 48.9524 125.783 45.2541 125.783 45.2541" fill="white"/>
<path fill-rule="evenodd" clip-rule="evenodd" d="M91.7131 2.84197C95.1421 0.557052 99.2624 0.169653 102.74 0.727913L102.778 0.734026L102.816 0.740873C104.53 1.04997 106.199 1.5663 107.786 2.27866C115.365 5.56797 121.372 13.3415 121.234 22.1278L121.233 22.1589L121.232 22.19C121.211 22.8493 121.06 23.4901 120.793 24.0786C121.18 24.2386 121.554 24.4331 121.909 24.6605C122.735 25.1896 123.444 25.886 123.988 26.7079L123.989 26.7089L125.025 28.2769C125.396 28.8236 125.682 29.4226 125.874 30.0538C126.365 30.4761 126.8 30.9668 127.164 31.5161L127.169 31.5236L128.685 33.8204C129.059 34.3727 129.346 34.9733 129.538 35.601C130.036 36.0301 130.477 36.5292 130.845 37.0878C130.845 37.0885 130.846 37.0892 130.846 37.09L132.691 39.8871L132.696 39.8936L132.7 39.9002C133.694 41.4195 134.12 43.3813 133.618 45.2609C133.615 45.2707 133.613 45.2806 133.611 45.2908C133.606 45.3117 133.601 45.3334 133.595 45.3559C133.559 45.5019 133.509 45.6856 133.441 45.8984C133.307 46.3201 133.095 46.8786 132.768 47.4946C132.692 47.6372 132.609 47.7847 132.518 47.9357C143.577 78.0513 131.06 112.416 101.754 128.306C69.3532 145.878 28.5991 134.267 10.7277 102.277C7.62323 96.7315 5.34561 90.7786 3.96131 84.6019C3.60296 84.3325 3.27967 84.0542 2.98966 83.7749C2.48362 83.2876 2.09246 82.8109 1.7967 82.3948C1.65172 82.2023 1.51706 82.001 1.39358 81.7918C0.766706 80.7293 0.456834 79.5082 0.504843 78.272L0.630533 72.6678C0.6437 72.0951 0.731615 71.5321 0.888408 70.9916C0.75271 70.4349 0.690537 69.8578 0.707634 69.2744L0.779694 66.0473C0.779706 66.0467 0.77972 66.0461 0.779733 66.0455C0.779741 66.0452 0.779749 66.0448 0.779757 66.0444C0.792237 65.4785 0.878192 64.922 1.03188 64.3875C0.899284 63.8403 0.838131 63.2733 0.853986 62.6999L0.910487 60.1802C0.910499 60.1796 0.910512 60.179 0.910525 60.1784C0.910533 60.1781 0.910541 60.1777 0.910549 60.1773C0.94894 58.4443 1.68051 56.8089 2.9265 55.6229L2.93974 55.6103L2.9531 55.5978C3.32981 55.2457 3.82152 54.7955 4.42731 54.2622C8.80826 37.065 20.1616 21.6507 37.1395 12.4412C53.8057 3.39847 72.6719 2.08143 89.499 7.28228C89.4575 6.50554 89.5968 5.72844 89.9077 5.01249C90.2775 4.16107 90.873 3.43397 91.6222 2.90439L91.6672 2.87255L91.7131 2.84197ZM4.82024 66.4327C4.7895 66.4541 4.76586 66.4713 4.7496 66.4832L4.76038 66.4753L4.82024 66.4327ZM2.86422 68.8336L2.36284 68.3732C2.10334 68.6558 1.87035 68.9589 1.66568 69.2786M81.213 17.6418C79.6319 19.1318 79.1421 21.0378 79.3311 22.8078C77.0766 23.0544 74.8344 23.3524 72.6044 23.7017C69.9539 24.1148 67.3166 24.6009 64.6956 25.1595C64.9112 24.7784 65.0787 24.3685 65.1916 23.9386C65.4413 22.9879 65.4118 21.9856 65.1066 21.0511C64.8016 20.1171 64.2363 19.2965 63.4854 18.6798C62.8558 18.1627 62.1164 17.8057 61.3304 17.6313C61.8665 17.4014 62.4422 17.1204 62.958 16.7806C69.1787 16.0392 75.336 16.3695 81.213 17.6418ZM50.9067 19.9592C50.358 20.2927 49.8346 20.6491 49.34 21.0218L49.3063 21.0472L49.2731 21.0733C45.6108 23.9561 42.9217 27.901 41.441 32.2113C41.0993 32.3476 40.7583 32.4853 40.4177 32.6244C40.3676 31.7451 40.1658 30.8311 39.7323 29.9529C39.0979 28.6679 38.0585 27.6594 36.7417 27.0685C40.7412 24.1366 45.1964 21.711 50.0339 19.9123C50.3217 19.9436 50.6155 19.9575 50.9067 19.9592ZM16.2398 83.2155C16.5634 84.5146 16.9323 85.7911 17.3443 87.0438C19.6424 84.3786 23.027 84.6431 25.2748 85.668C27.5992 86.7277 29.6357 88.8116 31.135 91.3872C32.6328 93.9601 33.4411 96.7637 33.1892 99.3141C33.0617 100.605 32.6378 102.019 31.6752 103.223C30.7161 104.422 29.3702 105.215 27.8246 105.461C32.0553 110.319 37.1193 114.379 42.7461 117.475C43.1866 117.492 43.6352 117.552 44.0648 117.63C41.4911 115.104 39.707 111.71 39.6121 107.739C39.519 103.851 40.9122 100.29 42.5853 97.3604C42.0611 96.6367 41.7542 95.7725 41.7103 94.87C41.6653 93.9469 41.8981 93.0365 42.3714 92.2527C44.427 88.8248 48.4707 87.0485 52.3054 87.4941C51.0176 84.5486 50.2136 81.4688 49.7638 78.7387C48.8951 73.4618 48.9403 67.1317 50.3534 61.138C49.8456 61.3393 49.3386 61.5431 48.8324 61.7494C47.545 62.2751 46.2861 62.8066 45.0558 63.3428C45.7483 64.9272 46.0787 66.7327 45.9336 68.6732C45.375 76.1478 38.2987 80.3117 31.9707 78.3358C29.1877 77.4671 27.067 75.5705 25.7863 73.2468C22.2786 75.3522 18.8602 77.5993 15.54 79.9824C15.7401 81.066 15.9734 82.1437 16.2394 83.2139M32.3995 67.6849C32.3008 69.0373 33.1727 70.3304 34.3545 70.6992C35.9851 71.2084 37.7978 70.1923 37.9558 68.0769C38.0591 66.696 37.4339 65.789 36.6292 65.3204L36.2527 65.1012C34.9516 65.75 33.6919 66.3973 32.4732 67.0429L32.4113 67.569C32.4041 67.6299 32.4009 67.665 32.3995 67.6849ZM50.3871 99.9398C48.6349 102.604 47.5535 105.193 47.6098 107.548C47.6768 110.351 50.1206 113.229 53.5906 114.209M58.1112 97.0176C59.431 98.596 60.8083 99.2486 61.9554 99.5406C63.4872 99.9305 65.0911 99.7955 66.4647 99.4801C64.772 99.3519 63.0651 98.8853 61.4131 98.0329L61.4083 98.0304C60.4405 97.5294 59.5492 96.942 58.729 96.2891C58.5471 96.554 58.3398 96.7978 58.1112 97.0176ZM79.2396 93.2626C78.2541 94.484 77.1316 95.6099 75.8553 96.5952L75.836 96.6101L75.8166 96.6247C74.426 97.6716 72.8784 98.4641 71.2471 98.9524C72.1734 99.2917 72.9694 99.9364 73.4926 100.796C74.0219 101.665 74.2349 102.694 74.0882 103.709C73.9416 104.722 73.447 105.644 72.7013 106.325L71.5557 107.371H71.3125C70.0208 108.22 68.6933 108.802 67.6921 109.18C67.6582 109.193 67.6245 109.206 67.5911 109.218C67.5995 109.277 67.6109 109.341 67.626 109.414C67.701 109.773 67.8302 110.181 68.0878 110.975C68.3266 111.71 68.6318 112.654 68.9193 113.813C69.0308 114.248 69.1015 114.693 69.1301 115.141L69.1318 115.169L69.1331 115.196C69.2155 116.845 68.7101 118.348 67.7464 119.546C66.8526 120.657 65.7255 121.312 64.8007 121.706C63.0076 122.471 61.0409 122.645 59.9517 122.701L59.9496 122.701C58.6897 122.764 57.365 122.775 56.0093 122.681C60.5178 123.803 65.1388 124.353 69.7608 124.328C69.7013 124.251 69.6431 124.173 69.5863 124.093L72.8493 121.779L69.5879 124.095C69.5873 124.094 69.5868 124.094 69.5863 124.093C68.6071 122.712 68.2577 121.069 68.5498 119.457C68.8252 117.937 69.6183 116.689 70.502 115.749C72.2508 113.889 74.8882 112.632 77.8165 112.03C80.7458 111.427 83.6631 111.539 86.0056 112.546C87.188 113.055 88.4102 113.877 89.2727 115.149C90.1884 116.5 90.5419 118.143 90.2023 119.81L90.0888 120.367C96.2195 117.919 101.866 114.393 106.744 109.948C106.972 109.34 107.29 108.753 107.598 108.244C108.273 107.129 109.257 105.808 110.454 104.416C111.649 103.026 112.799 101.861 113.793 101.027C114.254 100.64 114.786 100.236 115.345 99.9175C118.22 95.5925 120.464 90.8703 121.989 85.8964C121.713 86.0234 121.424 86.1341 121.121 86.2252L121.113 86.2277C117.526 87.2976 114.775 85.0835 113.49 82.8173C113.126 82.1759 112.833 81.48 112.609 80.7436C111.343 83.527 109.654 86.1337 107.436 88.3237C106.309 89.4438 105.016 90.38 103.608 91.1029C103.249 91.8795 102.83 92.6281 102.355 93.3421L100.705 92.2434C100.556 92.4853 100.4 92.7233 100.238 92.9571L101.805 94.1349C101.792 94.1522 101.779 94.1695 101.766 94.1867C101.743 94.215 101.72 94.2435 101.697 94.2719L100.187 93.0303C100.064 93.2054 99.9382 93.3782 99.8086 93.5486L99.803 93.5559L99.7974 93.5631C99.027 94.5658 98.1555 95.4849 97.1978 96.307L98.3455 97.711C98.3397 97.7158 98.3338 97.7206 98.3278 97.7254C98.3247 97.7279 98.3216 97.7304 98.3184 97.7329L97.1833 96.3194C96.8889 96.5716 96.5864 96.8146 96.2763 97.0481C96.2288 97.0838 96.1812 97.1193 96.1335 97.1545C95.9743 97.2719 95.8132 97.3868 95.6502 97.4992L95.2903 97.7533L94.9195 97.9782C94.8879 97.998 94.8562 98.0176 94.8244 98.0372L95.6531 99.5054C95.6418 99.5118 95.6306 99.5181 95.6193 99.5244L95.5896 99.5405L94.7886 98.0592C94.3614 98.321 93.9224 98.5631 93.473 98.785C93.169 98.9392 92.8603 99.0834 92.5475 99.2174L93.0947 100.684C93.089 100.687 93.0833 100.689 93.0776 100.691C93.0719 100.693 93.0662 100.695 93.0605 100.697L92.527 99.2262C92.0517 99.429 91.5668 99.6083 91.0743 99.7635L91.5352 101.177C91.4779 101.195 91.4222 101.212 91.3689 101.228C91.3375 101.236 91.3061 101.244 91.2746 101.252L90.9113 99.814C90.6445 99.8949 90.3754 99.9688 90.1045 100.036C90.0813 100.041 90.0581 100.047 90.035 100.053C89.5492 100.17 89.0574 100.265 88.5613 100.336L88.4659 100.349L88.3703 100.359C88.4342 100.352 88.4978 100.345 88.5611 100.335C89.0701 100.256 89.557 100.057 89.9796 99.7495C89.9974 99.7366 90.0151 99.7234 90.0327 99.7101L87.615 96.5234L90.1269 99.6364C90.3475 99.4584 90.5441 99.2531 90.7122 99.0259L90.2948 97.3738L90.7954 98.9084C91.0075 98.5942 91.1671 98.2424 91.2632 97.8658C91.4434 97.1599 91.3876 96.4158 91.107 95.7468C90.8267 95.0786 90.3406 94.5283 89.7318 94.1682C89.6389 94.1132 89.5439 94.0631 89.4469 94.0178C89.3535 93.9742 89.2584 93.935 89.1619 93.9005C89.0742 93.869 88.9854 93.8414 88.8956 93.8175L89.5726 97.5222L88.7827 93.7896C88.4777 93.7198 88.1635 93.6934 87.8496 93.7118C87.8136 93.7139 87.7777 93.7166 87.7418 93.7199L87.7874 93.7155L87.8496 93.7118C88.1738 93.6907 88.4963 93.6512 88.8158 93.5942C88.9133 93.5747 89 93.5593 89.0563 93.5495L89.1574 93.5319L89.2028 93.524L89.315 93.4956C89.6487 93.4113 89.9771 93.3089 90.2986 93.189L90.3157 93.1826L90.3328 93.1764C90.4211 93.1444 90.5089 93.111 90.5961 93.0763C90.6069 93.072 90.6177 93.0677 90.6285 93.0634C90.9569 92.9314 91.277 92.7808 91.5872 92.6125C91.5981 92.6066 91.6089 92.6007 91.6197 92.5947C91.6536 92.5762 91.6874 92.5574 91.721 92.5385L91.7526 92.5206L91.7624 92.5153L90.7898 91.1378L90.9036 91.0574L91.0228 90.9852L91.9042 92.4386L91.9873 92.3937L92.1729 92.2766L92.1818 92.2709L92.6697 91.9612C92.7114 91.9307 92.7518 91.9015 92.7879 91.8754L93.0369 91.6961C93.075 91.6686 93.1101 91.6431 93.1423 91.6197C93.1789 91.593 93.2117 91.569 93.2405 91.5476C93.2736 91.5231 93.2909 91.5098 93.2963 91.5057C93.2975 91.5048 93.2981 91.5043 93.2981 91.5043L93.3093 91.4952C93.9178 91.0066 94.4759 90.4625 94.9766 89.8709L93.4427 88.7034C93.4445 88.701 93.4464 88.6986 93.4482 88.6961C93.4501 88.6937 93.452 88.6913 93.4538 88.6889L94.9827 89.8636C95.1303 89.689 95.2729 89.5102 95.4103 89.3274L95.4626 89.2577L95.4754 89.2423C95.4813 89.2336 95.4888 89.2225 95.4982 89.2084C95.5214 89.1738 95.5468 89.1351 95.5807 89.0831C95.6097 89.0388 95.6543 88.9702 95.6958 88.9079C95.9228 88.5671 96.125 88.2109 96.3001 87.8437L94.4292 87.0297C94.4299 87.0281 94.4306 87.0266 94.4312 87.025C94.4319 87.0235 94.4325 87.0221 94.4332 87.0206L96.3022 87.8393C96.4551 87.5183 96.5877 87.1883 96.6992 86.8511L96.994 85.9597L96.9841 85.758H94.7994C94.7994 85.6983 94.8004 85.6438 94.8018 85.5964C94.8031 85.5778 94.8043 85.5592 94.8053 85.5405L96.9792 85.6589L96.9521 85.1124C96.9447 84.9621 96.9282 84.8123 96.9025 84.6636C96.758 83.9706 96.4833 83.5815 96.2084 83.33L95.9907 83.1308L94.6873 84.9639C94.6866 84.9634 94.6859 84.9629 94.6852 84.9624L95.9899 83.13L94.862 82.0981L92.4835 82.6189L92.9186 84.8332C92.8815 84.8405 92.8446 84.848 92.8076 84.8557C92.7644 84.8615 92.7182 84.8676 92.6684 84.8742L92.3752 82.6426L92.0913 82.7048C91.9395 82.738 91.8202 82.7675 91.7204 82.796L91.7098 82.799C91.5636 82.8401 91.4141 82.8865 91.2614 82.9381C91.2603 82.9385 91.2592 82.9388 91.2581 82.9392C91.166 82.9703 91.0726 83.0033 90.9781 83.0382L90.0394 83.384L89.6863 83.6031L90.6885 85.5864C90.6719 85.5948 90.6554 85.6032 90.6392 85.6114L90.5841 85.6373L89.6422 83.6305L89.1028 83.9652C89.0623 83.9903 89.022 84.0157 88.9819 84.0413C88.9741 84.0463 88.9663 84.0513 88.9586 84.0563C88.8914 84.0994 88.8247 84.1432 88.7586 84.1876C88.7522 84.1919 88.7458 84.1962 88.7394 84.2005C88.1332 84.61 87.5706 85.0764 87.0595 85.5924L88.4442 87.068C88.4254 87.0857 88.4032 87.1066 88.3784 87.1298C88.3587 87.1466 88.339 87.1635 88.3193 87.1804L87.0011 85.6518C86.8115 85.846 86.6292 86.0471 86.4545 86.2548L87.8377 87.6349C87.8251 87.6476 87.8124 87.6604 87.7998 87.6731C87.7836 87.6884 87.7691 87.7021 87.7567 87.7138L86.4172 86.2994C86.4107 86.3072 86.4042 86.315 86.3978 86.3228C86.1744 86.5927 85.9656 86.8736 85.7721 87.1641L85.7395 87.2131L85.7054 87.2611C85.6577 87.3283 85.6143 87.3983 85.5752 87.4705L85.5417 87.5326L85.506 87.5934C85.4597 87.6722 85.4147 87.7517 85.3709 87.8318C85.369 87.8353 85.3671 87.8388 85.3651 87.8423C85.2487 88.0559 85.141 88.2738 85.0423 88.4955L85.0159 88.5548L85.0019 88.5838L84.9873 88.6245L84.9589 88.6953C84.884 88.8823 84.8192 89.0728 84.7645 89.2661L84.6026 89.9172C84.6537 89.7108 84.6847 89.5011 84.6959 89.291L82.1892 88.6025C82.1535 88.6746 82.1175 88.7466 82.0812 88.8185C82.01 88.9593 81.9376 89.0997 81.864 89.2395L84.6026 89.9172L84.6016 89.9213L81.8635 89.2405C81.8626 89.2421 81.8618 89.2436 81.861 89.2452C81.8595 89.2481 81.8579 89.251 81.8564 89.2538C81.8084 89.3448 81.7599 89.4356 81.7109 89.5262C81.617 89.6995 81.5212 89.8719 81.4235 90.0433C80.7837 91.1652 80.059 92.2469 79.2396 93.2626ZM115.915 66.4558C117.725 64.8816 120.509 63.8518 123.387 65.4481C123.648 65.5924 123.893 65.7512 124.123 65.9217C123.885 63.1301 123.423 60.3208 122.725 57.514L122.724 57.5121C122.038 54.7513 121.133 52.0488 120.017 49.4293C117.8 49.3264 115.583 49.2673 113.368 49.252C115.448 54.5004 116.072 60.2989 115.97 65.1606L115.97 65.1792L115.969 65.1979C115.957 65.611 115.939 66.0306 115.915 66.4558ZM63.6303 27.5561C63.6295 27.5562 63.6287 27.5564 63.628 27.5566L64.479 31.3292C61.667 32.0112 58.8722 32.7733 56.0948 33.6153C56.6342 32.9616 57.2197 32.3445 57.8474 31.7687L57.9023 31.7183L57.9554 31.6659C58.7938 30.8372 59.7035 30.0267 60.7055 29.1396L60.8606 29.0023C61.2574 28.6511 61.6688 28.2871 62.0853 27.9122C62.5994 27.7907 63.1145 27.6719 63.6303 27.5561ZM93.7172 74.0417C93.9414 75.1594 94.2964 76.098 94.7006 76.7987L94.7025 76.802C95.2816 76.851 95.8573 76.9482 96.4209 77.097C96.6293 76.783 96.8385 76.392 97.0299 75.9259L93.7172 74.0417ZM104.762 71.1205L104.905 71.2017C104.92 71.1392 104.935 71.0765 104.95 71.0138L104.762 71.1205ZM105.532 67.8084C105.661 66.8258 105.749 65.8305 105.8 64.829C105.994 59.6019 105.212 54.5395 102.845 50.4934L102.834 50.4759L102.824 50.4583C102.376 49.6738 101.819 48.9521 101.168 48.3144C100.939 48.0933 100.693 47.889 100.433 47.7032L100.424 47.6972C100.153 47.5026 99.8572 47.34 99.544 47.2134C98.8924 46.959 98.2291 46.9281 97.3372 47.4338L97.3032 47.453L97.2846 47.4634L97.2799 47.466L97.2787 47.4668C96.9318 47.6787 96.6052 47.9199 96.3025 48.1874L96.2923 48.1963C96.0025 48.4506 95.7308 48.7235 95.479 49.0129L95.4744 49.0182C94.6194 49.9976 93.8749 51.2325 93.1862 52.6936C92.4463 54.263 91.8409 56.1314 91.4101 58.1781C92.6147 57.4219 94.0311 56.938 95.6529 56.938C98.6545 56.938 100.987 58.6293 102.503 60.5596C104.027 62.4983 105.021 64.996 105.498 67.6234L105.532 67.8084ZM93.8921 68.1003L96.7973 66.4477C96.608 66.0674 96.4085 65.7513 96.2127 65.5021C95.9495 65.1671 95.7588 65.0237 95.6562 64.9652C95.507 65.045 95.1663 65.2962 94.7258 66.0443C94.4053 66.5887 94.1137 67.2837 93.8921 68.1003ZM95.5914 64.9337C95.5765 64.9313 95.5692 64.9286 95.5694 64.9278C95.5696 64.9271 95.577 64.9283 95.5914 64.9337ZM65.7473 53.309C65.3339 53.6519 64.9507 54.0274 64.6014 54.4314L64.6 54.4331C64.2984 54.7816 64.0178 55.1467 63.7595 55.5265L63.7552 55.5328C62.6447 57.1588 61.8 59.1505 61.1628 61.2889C61.0292 61.752 60.9059 62.2213 60.7928 62.6957C62.3828 61.3434 64.3834 60.4135 66.743 60.4135C69.827 60.4135 72.3333 62.0285 74.0524 64.0579C74.6734 64.7911 75.2193 65.6052 75.6891 66.479C75.324 62.6343 74.3361 59.0139 72.4742 55.9566C71.7188 54.7363 70.8639 53.79 70.0306 53.1796L70.0276 53.1774C69.8011 53.0111 69.5604 52.8627 69.3079 52.7339L69.2979 52.7288C69.0439 52.5982 68.7728 52.4996 68.4913 52.4358C67.895 52.3084 67.076 52.3371 65.9056 53.1814C65.8464 53.2283 65.7949 53.2698 65.7473 53.309ZM68.726 70.4267C68.4809 69.9445 68.2148 69.5436 67.9481 69.2287C67.2951 68.4579 66.8536 68.4135 66.743 68.4135C66.6252 68.4135 65.9459 68.4962 65.0977 69.8295C64.5641 70.6684 64.1075 71.8203 63.8547 73.1974L68.726 70.4267ZM68.7034 80.7701L63.8669 78.0192C64.1221 79.3675 64.5726 80.4965 65.0979 81.3224C65.9463 82.6563 66.6257 82.7387 66.743 82.7387C66.8531 82.7387 67.2915 82.6948 67.9411 81.9318C68.2019 81.6255 68.4624 81.2368 68.7034 80.7701ZM81.9317 52.6183C82.0003 52.4069 82.071 52.1952 82.1439 51.9833C81.9767 52.0141 81.8095 52.0451 81.6424 52.0764C81.7408 52.256 81.8373 52.4367 81.9317 52.6183ZM84.6996 89.1931L82.204 88.5725L84.6996 89.1931ZM85.7706 90.7051C85.4703 91.526 84.9474 92.2421 84.2669 92.7771L84.2658 92.778C83.5029 93.3774 82.5761 93.7218 81.6158 93.7713C80.793 93.8138 79.973 93.6384 79.2396 93.2626M85.7706 90.7051C86.0263 90.0582 86.3651 89.4444 86.7796 88.8789L86.7858 88.8703L86.792 88.8617C87.0965 88.4416 87.4334 88.0442 87.7998 87.6731C87.9417 87.5393 88.215 87.283 88.3784 87.1298C88.8482 86.7298 89.3489 86.3652 89.8761 86.0392L89.8975 86.026L89.9187 86.0126C89.9586 85.9872 90.0013 85.9613 90.0423 85.9377L90.0686 85.9225L90.0946 85.907C90.2401 85.8202 90.4225 85.7218 90.6392 85.6114L91.0437 85.4216L91.0525 85.4174C91.0661 85.4109 91.0792 85.4047 91.0918 85.3988C91.105 85.3927 91.1175 85.3868 91.1293 85.3814C91.1445 85.3744 91.1575 85.3685 91.1683 85.3636L91.1922 85.3551L91.2831 85.3173C91.4833 85.2343 91.6977 85.1572 91.927 85.0858L91.9344 85.0834C92.2214 84.9934 92.5129 84.9174 92.8076 84.8557C92.849 84.8502 92.8878 84.845 92.9247 84.84C93.0724 84.8201 93.1898 84.8043 93.3242 84.7886L93.3474 84.7858L93.3706 84.7828C93.4644 84.7707 93.5589 84.7649 93.6536 84.7653L93.7002 84.7655L93.7467 84.7647C94.3199 84.7541 94.6031 84.9041 94.6873 84.9639C94.7317 84.9959 94.7434 85.016 94.7524 85.0343C94.7618 85.0533 94.8095 85.1553 94.811 85.394C94.8096 85.4193 94.8071 85.4628 94.8051 85.5091C94.8039 85.5343 94.8028 85.5637 94.8018 85.5964C94.787 85.8069 94.7536 86.016 94.7018 86.2215L94.6999 86.229L94.6981 86.2365C94.6313 86.5058 94.5421 86.7694 94.4312 87.025C94.1716 87.6167 93.8419 88.1777 93.4482 88.6961C92.7894 89.552 91.9966 90.3031 91.0975 90.9209L91.0765 90.9354L90.9036 91.0574L90.7182 91.1699L90.6911 91.1869C90.4416 91.3437 90.1836 91.4877 89.9182 91.6181L89.8921 91.631L89.8662 91.6441C89.1174 92.0258 88.3084 92.2849 87.4715 92.4101C86.6492 92.5135 85.8639 92.831 85.1973 93.3368L85.1496 93.373L85.1031 93.4105C84.3249 94.0385 83.7625 94.9048 83.5117 95.8876C83.2607 96.8711 83.3381 97.9078 83.7297 98.8412C84.1209 99.7739 84.8013 100.547 85.6591 101.054C86.491 101.546 87.4514 101.766 88.4076 101.692C89.0396 101.649 89.6686 101.571 90.2916 101.457L90.3463 101.447L90.3889 101.438C90.3889 101.438 90.3896 101.438 90.391 101.438C90.3957 101.437 90.4093 101.434 90.4354 101.43C90.4613 101.425 90.5713 101.406 90.645 101.393C90.7334 101.377 90.8581 101.354 90.9959 101.323C91.0936 101.301 91.2224 101.27 91.3689 101.228C91.9472 101.078 92.5176 100.899 93.0776 100.691C93.9553 100.371 94.8054 99.9814 95.6193 99.5244L96.0293 99.3027L96.4517 99.0361L96.4607 99.0304L97.2107 98.5543L97.3379 98.4586C97.3555 98.4453 97.3775 98.4291 97.4052 98.409C97.471 98.3612 97.5692 98.2909 97.719 98.1828L97.7256 98.178C97.8652 98.0772 98.1251 97.8897 98.3278 97.7254C99.6153 96.6902 100.77 95.5019 101.766 94.1867C101.935 93.9724 102.074 93.7667 102.147 93.6568C102.198 93.5819 102.244 93.5105 102.279 93.4577L102.289 93.4418C102.321 93.3922 102.339 93.3648 102.355 93.3421C102.354 93.3423 102.355 93.3418 102.355 93.3421L100.705 92.2434M88.4076 101.692C88.395 101.693 88.3825 101.694 88.3699 101.694L88.1097 97.7029L88.4941 101.684C88.4653 101.687 88.4364 101.69 88.4076 101.692ZM91.1683 85.3636L91.0998 85.3882C91.1294 85.3776 91.1518 85.369 91.1651 85.3638C91.1789 85.3584 91.1882 85.3546 91.1924 85.3529C91.1997 85.3499 91.1975 85.3507 91.1837 85.3568C91.1793 85.3587 91.1741 85.361 91.1683 85.3636ZM94.811 85.394C94.8114 85.3876 94.8117 85.3824 94.812 85.3785C94.8136 85.3498 94.8133 85.3548 94.8128 85.3649C94.8124 85.3743 94.8116 85.3957 94.8111 85.4258C94.8109 85.438 94.8108 85.4517 94.8108 85.4666V85.4462L94.8111 85.4258C94.8112 85.4149 94.8111 85.4044 94.811 85.394ZM87.4715 92.4101C87.5196 92.404 87.5679 92.3987 87.6163 92.3941L87.7418 93.7199L87.9931 96.3764L87.4249 92.4169C87.4405 92.4147 87.456 92.4124 87.4715 92.4101ZM50.3871 99.9398C52.895 103.974 56.1799 106.259 59.7344 107.228L50.3871 99.9398ZM59.7344 107.228C59.4931 108.54 59.5284 109.772 59.7948 111.048C59.9655 111.866 60.2271 112.671 60.4388 113.322C60.4522 113.363 60.4654 113.404 60.4784 113.444C60.5988 113.815 60.7176 114.183 60.8338 114.571C60.8116 114.575 60.789 114.579 60.766 114.583C60.3597 114.653 59.9338 114.691 59.5425 114.711C57.3397 114.822 55.3516 114.706 53.5906 114.209" fill="white"/>
<path d="M127.398 45.9111C127.814 45.9344 128.229 45.8458 128.598 45.6549C128.968 45.4639 129.278 45.1777 129.495 44.8268C129.987 44.0213 129.93 42.9721 129.353 42.0896L127.504 39.2879C127.102 38.6757 126.496 38.2206 125.79 38.0005C125.91 37.3202 125.757 36.6205 125.363 36.0491L123.831 33.7266C123.426 33.1167 122.817 32.6668 122.109 32.456C122.175 32.1207 122.173 31.7758 122.104 31.4412C122.034 31.1066 121.898 30.7888 121.704 30.506L120.652 28.9147C120.418 28.5608 120.111 28.2591 119.752 28.029C119.392 27.7988 118.988 27.6453 118.565 27.5783C117.26 27.3915 115.956 27.2182 114.652 27.0585C95.3586 7.48179 64.4782 2.15859 39.0471 15.9569C22.6821 24.834 11.8929 39.8216 8.01025 56.451C6.98521 57.3237 6.20895 58.0297 5.68435 58.52C5.20236 58.9788 4.92388 59.6067 4.90954 60.2669L4.85269 62.8024C4.83379 63.4131 5.04727 64.0087 5.45121 64.4722C5.0309 64.9279 4.79206 65.518 4.77876 66.1336L4.70625 69.3808C4.68539 70.001 4.90037 70.6065 5.30904 71.0786C4.88501 71.5403 4.64379 72.137 4.62947 72.7596L4.50292 78.4022C4.4796 78.8769 4.5962 79.3481 4.83863 79.759C5.08106 80.1699 5.43897 80.5029 5.86918 80.7178C6.17235 80.8658 6.50611 80.943 6.84447 80.9433C6.99742 80.9424 7.14987 80.926 7.2994 80.8943C8.49183 87.7053 10.8304 94.2722 14.2187 100.324C31.0074 130.379 69.3446 141.332 99.8468 124.79C128.518 109.244 140.059 74.9351 127.398 45.9111Z" fill="#0A0A3C"/>
<path d="M94.1914 7.99163C95.1169 8.29421 96.0296 8.48333 96.9608 8.71446C99.3777 9.32663 101.749 9.84494 104.049 10.7485C109.273 12.8413 113.243 17.2554 115.357 22.4007C115.442 22.6041 115.596 22.7726 115.792 22.878C115.987 22.9835 116.214 23.0196 116.434 22.9803C116.653 22.9409 116.853 22.8285 116.998 22.6619C117.144 22.4952 117.227 22.2843 117.234 22.0645C117.344 15.1331 112.518 8.68224 106.17 5.938C104.874 5.35372 103.508 4.93023 102.106 4.67724C99.3222 4.23037 96.2983 4.59319 93.9312 6.17054C93.775 6.28097 93.6524 6.43143 93.5767 6.60561C93.5011 6.77979 93.4753 6.97104 93.5021 7.15864C93.5289 7.34624 93.6073 7.52304 93.7288 7.66987C93.8503 7.81671 94.0103 7.92798 94.1914 7.99163Z" fill="#0A0A3C"/>
<path d="M44.7169 35.2255C45.7832 30.9403 48.2484 26.9703 51.7472 24.2163C54.1825 22.3812 57.2704 21.2003 60.3611 21.5182C60.5767 21.5461 60.7797 21.6336 60.9467 21.7708C61.1136 21.9079 61.2377 22.089 61.3043 22.2928C61.3708 22.4967 61.3772 22.715 61.3228 22.9224C61.2683 23.1297 61.1552 23.3176 60.9966 23.464C59.0986 25.3033 56.9988 26.9871 55.1435 28.8208C53.8639 29.9946 52.7269 31.3109 51.7556 32.7432C58.7627 30.4902 65.9401 28.7884 73.2203 27.6539C77.4939 26.9843 81.8158 26.5085 86.186 26.2265C83.3981 24.3003 82.5224 21.8544 83.9938 20.518C85.4027 19.2391 88.6285 19.4058 91.4548 20.6581C94.21 21.8783 96.4307 24.0608 96.5132 25.9183C100.252 25.9351 104.012 26.0897 107.793 26.382C95.2635 15.8028 78.398 10.5412 61.18 12.9787C61.1473 13.4732 59.0475 14.4146 55.7449 15.2201C52.4423 16.0255 50.1378 16.1418 49.8762 15.7188C32.3468 21.7998 19.3 35.4874 13.6829 51.9907C19.3697 47.819 27.7576 42.4874 38.6875 37.7022C40.6779 36.8271 42.6877 36.0015 44.7169 35.2255ZM33.696 38.694C30.419 42.2563 26.6942 42.8503 25.6692 40.6551C24.8702 38.9391 26.0289 35.9693 28.1088 33.707C30.1887 31.4446 33.0776 30.0185 34.8888 30.6335C37.2147 31.4194 36.9801 35.1316 33.7017 38.694H33.696Z" fill="#FFD639"/>
<path d="M126.606 56.5475C125.667 52.7658 124.344 49.0866 122.66 45.5649C117.314 45.2409 111.975 45.1652 106.643 45.338C110.803 50.7284 112.108 58.5185 111.971 65.0772C111.759 72.1039 109.809 80.3632 104.62 85.4833C103.455 86.6418 102.048 87.537 100.497 88.1071C100.144 89.1727 99.6496 90.1875 99.0254 91.1245C98.9088 91.2996 98.7411 91.5686 98.6074 91.7311C97.8016 92.8028 96.8632 93.7713 95.8138 94.614C95.6219 94.7709 95.1371 95.1085 94.9324 95.2626L94.3168 95.6534L94.0083 95.8481L93.687 96.0218C93.0506 96.381 92.3849 96.687 91.6966 96.9366C91.2379 97.1077 90.7699 97.2536 90.2948 97.3736C90.0887 97.4409 89.7844 97.4773 89.5726 97.5221C89.089 97.6105 88.6005 97.6708 88.1097 97.7028C87.9652 97.7168 87.8199 97.6846 87.6954 97.6109C87.5709 97.5373 87.4738 97.4262 87.4183 97.2939C87.3629 97.1617 87.352 97.0154 87.3874 96.8766C87.4228 96.7379 87.5026 96.614 87.615 96.5233C87.7245 96.4402 87.8555 96.3893 87.9931 96.3762C89.2802 96.1915 90.5271 95.7967 91.6824 95.2079C92.0726 95.0162 92.4522 94.8044 92.8198 94.5734L93.0969 94.4053L93.3628 94.2175C94.6081 93.3619 95.7092 92.3186 96.6256 91.1259C97.2143 90.3524 97.7082 89.5131 98.0971 88.6254C98.2978 88.164 98.4595 87.687 98.5804 87.1993C98.6996 86.7268 98.7729 86.2441 98.7994 85.7579C98.7994 85.6612 98.8108 85.5646 98.8108 85.4665C98.8278 83.7953 98.1326 82.5065 97.0052 81.7038C96.1166 81.0721 94.9608 80.7415 93.6728 80.7653C93.4004 80.764 93.1282 80.7808 92.8581 80.8157C92.6193 80.8437 92.3819 80.8773 92.1473 80.9081C91.6708 81.0018 91.2 81.1215 90.737 81.2668C90.4043 81.3704 90.0744 81.4881 89.7503 81.6226C89.6565 81.6562 89.4972 81.7276 89.3352 81.8047L88.8845 82.0162C88.6073 82.1563 88.3158 82.3104 88.0457 82.4715C87.9533 82.5247 87.8609 82.5808 87.7728 82.6368C87.0446 83.0869 86.3539 83.5933 85.707 84.1511C85.5577 84.2912 85.1526 84.6708 85.0062 84.8095C84.4774 85.3395 83.9915 85.9095 83.5532 86.5143C82.9218 87.3759 82.4071 88.3149 82.022 89.3076C81.9804 89.4357 81.9012 89.5487 81.7945 89.6326C81.6846 89.719 81.5501 89.7693 81.4097 89.7765C81.2693 89.7838 81.1301 89.7476 81.0116 89.673C80.8932 89.5984 80.8013 89.4892 80.749 89.3606C80.6966 89.232 80.6865 89.0906 80.7198 88.956L80.8961 88.2472C80.9929 87.8945 81.1097 87.5475 81.2458 87.2077C81.287 87.0923 81.3345 86.9792 81.388 86.8687C81.5861 86.4236 81.8092 85.9896 82.0562 85.5688C82.1723 85.3539 82.3014 85.1462 82.4428 84.9468C82.7131 84.5409 83.0045 84.1491 83.3158 83.7729C84.3572 82.5146 85.5994 81.4316 86.9937 80.5663C86.671 79.9107 86.3767 79.2425 86.1122 78.5715C83.4878 71.6808 83.2959 64.0294 84.891 56.8837C85.7113 53.4236 87.0235 49.8193 89.1105 46.8173C87.0064 47.1049 84.9095 47.4318 82.8196 47.7979C80.1231 48.2704 77.4343 48.8097 74.753 49.4158C74.8951 49.5559 75.0373 49.696 75.1695 49.8361C80.2165 55.291 81.9524 63.7268 81.9851 70.9131C81.9723 78.5421 79.8 88.4965 73.4109 93.4289C70.4168 95.6828 66.6436 96.2306 63.2472 94.4781C57.4837 91.4943 54.6901 84.0334 53.7106 78.0883C52.5035 70.7563 53.2713 61.3776 57.1226 54.3874C53.8233 55.5081 50.5568 56.7273 47.323 58.045C44.2763 59.289 41.3817 60.5665 38.6421 61.8637C40.7349 63.0824 42.1651 65.4275 41.9447 68.3748C41.5865 73.1699 37.1423 75.7601 33.163 74.5175C30.0566 73.5481 28.187 70.4369 28.4102 67.3914C28.4174 67.2948 28.4273 67.1981 28.4387 67.1015C22.4466 70.4161 16.6871 74.1236 11.1993 78.1989C11.4808 80.2111 11.8675 82.2076 12.358 84.1805C16.5221 100.9 27.6582 114.126 41.9703 121.597C42.3002 121.222 44.5564 121.675 47.6983 122.94C50.8402 124.205 52.7979 125.451 52.7425 125.941C62.7497 128.861 73.3647 129.107 83.5003 126.654C93.6359 124.202 102.928 119.139 110.425 111.984C110.14 111.575 111.278 109.593 113.487 107.024C115.696 104.455 117.468 103.039 117.934 103.222C127.111 90.0711 130.769 73.2666 126.606 56.5475ZM27.0881 101.526C25.1845 101.744 22.6809 99.7425 21.1341 97.0935C19.5873 94.4445 19.1096 91.2982 20.264 89.7909C21.7426 87.8591 25.2513 89.2306 27.6781 93.3995C30.1049 97.5684 29.5291 101.246 27.0881 101.526ZM70.0017 103.371C67.727 105.288 64.2623 106.067 64.2623 106.067C62.7596 109.61 64.0334 110.718 65.0414 114.795C65.0928 114.991 65.1252 115.193 65.1381 115.395C65.2732 118.099 61.7161 118.605 59.7471 118.706C57.3146 118.829 54.8451 118.72 52.5036 118.058C47.812 116.733 43.7304 112.643 43.611 107.643C43.52 103.843 45.3496 100.188 47.4665 97.1159C48.2518 95.9819 49.1034 94.894 50.017 93.8575C48.921 94.0817 47.8783 94.5096 46.9448 95.1183C46.9132 95.1392 46.8799 95.1574 46.8453 95.1729L46.5083 95.2598C46.3845 95.291 46.254 95.2851 46.1336 95.243C46.0131 95.201 45.9081 95.1245 45.8319 95.0234C45.7556 94.9223 45.7116 94.8012 45.7055 94.6754C45.6994 94.5496 45.7314 94.4248 45.7975 94.317C47.2263 91.9258 50.4663 90.8149 53.1149 91.7619C53.9654 92.0525 54.7369 92.5318 55.3697 93.1627C55.4718 93.2739 55.535 93.4144 55.5499 93.5636C55.5649 93.7128 55.5309 93.8628 55.453 93.9915C55.375 94.1203 55.2571 94.221 55.1167 94.2788C54.9763 94.3366 54.8208 94.3485 54.673 94.3128C53.7305 94.0859 52.9429 93.8827 52.0572 93.7889C51.9889 93.7805 51.915 93.7763 51.8539 93.7693C56.3294 106.151 65.7693 104.136 69.5994 102.705C69.6866 102.675 69.7816 102.676 69.8684 102.707C69.9552 102.738 70.0286 102.798 70.0761 102.876C70.1236 102.954 70.1425 103.046 70.1294 103.136C70.1164 103.226 70.0723 103.309 70.0046 103.371H70.0017ZM86.28 119.011C85.9033 120.862 83.1949 122.596 80.1668 123.221C77.1386 123.845 73.9468 123.327 72.8493 121.779C71.4418 119.797 73.8445 116.931 78.6228 115.947C83.4011 114.964 86.7662 116.639 86.2829 119.011H86.28ZM123.621 75.9828C123.286 79.0184 121.801 81.8439 119.97 82.3945C117.621 83.0949 115.598 79.9626 116.124 75.1815C116.65 70.4004 119.31 67.7571 121.45 68.9478C123.122 69.8695 123.958 72.943 123.621 75.9828Z" fill="#FFD639"/>
<path d="M39.5562 39.6267C27.162 45.0452 18.1186 51.1669 12.628 55.4338C10.0804 57.4132 8.29901 58.9934 7.30383 59.9165L7.16166 60.0482C7.09288 60.1186 7.05419 60.2124 7.05361 60.3102L7.02234 61.6774L6.99672 62.8457C6.98851 62.899 6.99563 62.9535 7.01724 63.003C7.03885 63.0525 7.0741 63.0951 7.119 63.1258C7.13748 63.1356 7.1574 63.1427 7.20147 63.116C7.91421 62.5884 8.65157 62.0514 9.41359 61.5051C10.1131 61.0008 10.841 60.4829 11.5973 59.9515C19.4251 54.4644 30.2882 47.7012 44.2478 42.046C44.0859 40.5921 44.094 39.1246 44.2719 37.6726C42.6872 38.2945 41.1153 38.9459 39.5562 39.6267ZM119.904 31.6559L118.855 30.066C118.787 29.9629 118.699 29.8745 118.595 29.8061C118.491 29.7377 118.375 29.6908 118.252 29.6681L116.917 29.479C114.744 29.1821 112.575 28.9304 110.41 28.724C105.525 28.257 100.67 28.0236 95.845 28.0236H95.1839C93.5537 28.032 91.9278 28.0656 90.3061 28.1244C84.6951 28.3314 79.1017 28.8689 73.5558 29.734C70.5172 30.2084 67.5013 30.7832 64.5082 31.4584C61.461 32.143 58.4442 32.9288 55.4577 33.816C53.6948 34.34 51.9414 34.9003 50.1975 35.497C49.4748 37.049 48.9408 38.6797 48.6066 40.3552C50.4956 39.6566 52.3911 38.9963 54.2934 38.3744C58.7233 36.9315 63.1978 35.6997 67.7169 34.679C75.3477 32.9537 83.1057 31.8295 90.9175 31.3169C98.289 30.7974 105.69 30.833 113.056 31.4234C115.032 31.5822 117.026 31.7815 119.038 32.0216L119.715 32.1056H119.722C119.85 32.1196 119.954 32.0986 119.984 32.0496C120.014 32.0005 120.024 31.8381 119.904 31.6559Z" fill="white"/>
<path d="M35.628 60.9475C39.0045 59.2987 42.627 57.6626 46.4912 56.0838C50.5932 54.4093 54.7493 52.8936 58.9594 51.5367C59.4873 50.8433 60.062 50.1858 60.6796 49.5685C63.7461 46.5497 68.0183 45.3141 71.9948 47.4084C72.1924 47.5107 72.3872 47.6213 72.5791 47.7362C75.8509 46.9648 79.1364 46.2891 82.4357 45.7092C85.2999 45.2077 88.1778 44.7795 91.0695 44.4246C91.7207 43.7571 92.4305 43.1477 93.1907 42.6035C96.098 40.6031 99.6949 40.1997 102.828 41.9563C103.511 42.3321 104.15 42.7787 104.736 43.2885C109.978 43.0644 115.235 43.077 120.506 43.3264C122.466 43.4197 124.426 43.5463 126.387 43.706C126.731 43.734 127.077 43.7606 127.422 43.7914C127.479 43.7914 127.615 43.7998 127.658 43.7326C127.701 43.6654 127.696 43.4524 127.55 43.2353L125.702 40.4336C125.625 40.3154 125.524 40.2144 125.405 40.1369C125.287 40.0595 125.153 40.0074 125.012 39.9839L124.395 39.9209C122.18 39.693 119.988 39.5109 117.819 39.3746C67.8108 36.2353 29.6612 56.8221 11.6542 69.1186C11.0154 69.5538 10.4031 69.9783 9.81737 70.392L9.76475 70.4298C9.65528 70.5055 9.54868 70.5825 9.44063 70.6582L9.27712 70.7744L9.06244 70.9271L8.82646 71.0952L8.67006 71.2073L8.40564 71.3978C7.88815 71.7714 7.39338 72.1333 6.92138 72.4835C6.87472 72.526 6.83789 72.5779 6.81336 72.6356C6.78883 72.6934 6.77718 72.7557 6.77921 72.8183L6.6982 76.4604L6.65269 78.4679C6.64262 78.5389 6.65285 78.6112 6.68223 78.6768C6.71162 78.7424 6.75898 78.7986 6.81902 78.8391C6.84461 78.8517 6.86594 78.8629 6.93134 78.8111L6.97257 78.7774C8.06869 77.9033 9.38943 76.8905 10.9078 75.7726C16.8346 71.4515 23.0601 67.543 29.539 64.0756C31.4697 63.0343 33.4993 61.9916 35.628 60.9475Z" fill="white"/>
<path d="M44.6942 44.4975C44.6856 44.4652 44.68 44.4316 44.6715 44.3994C33.1539 49.129 22.2098 55.1143 12.0438 62.2433C11.5651 62.5777 11.0955 62.9101 10.6349 63.2407C9.89275 63.7712 9.17482 64.2946 8.48103 64.8111C7.99482 65.1711 7.51855 65.5269 7.05935 65.8771C7.01625 65.9151 6.98197 65.9618 6.9589 66.014C6.93583 66.0662 6.9245 66.1227 6.92568 66.1797L6.85175 69.4282C6.84387 69.4886 6.85299 69.5499 6.87806 69.6054C6.90313 69.661 6.94319 69.7088 6.99392 69.7434C7.01809 69.756 7.03657 69.7658 7.09628 69.7224L7.17305 69.6678L7.35219 69.5389L7.60952 69.354L7.74173 69.2587L8.07442 69.022L8.12842 68.9842C9.32406 68.1437 10.6136 67.2457 11.9969 66.3226C22.7443 59.1813 34.2514 53.2184 46.3135 48.5403L46.305 48.5277C45.5876 47.2613 45.0458 45.9058 44.6942 44.4975ZM123.562 37.1991L122.03 34.8779C121.959 34.7683 121.865 34.6745 121.756 34.6022C121.646 34.5298 121.523 34.4806 121.393 34.4576C121.206 34.431 121.02 34.4072 120.834 34.382C120.375 34.3203 119.917 34.261 119.458 34.2041C117.988 34.0173 116.526 33.8567 115.073 33.7222C110.37 33.2767 105.768 33.0666 101.283 33.0666C97.8226 33.0666 94.4281 33.1866 91.0994 33.4266C83.4198 33.9712 75.7966 35.1198 68.3027 36.8615C63.6879 37.9303 59.2508 39.1883 55.0042 40.5877C52.6897 41.3498 50.4326 42.152 48.2328 42.9944C48.0936 44.5926 48.1046 46.2001 48.2655 47.7964C48.6398 47.6564 49.0157 47.5163 49.3929 47.3762C52.7566 46.1425 56.136 45.0172 59.5309 44.0002C61.7763 43.3296 64.0273 42.7053 66.2839 42.1272C82.7168 37.9057 99.7178 36.2387 116.673 37.1865C118.796 37.306 120.92 37.4657 123.045 37.6656L123.424 37.7006C123.47 37.7006 123.62 37.7146 123.663 37.6445C123.706 37.5745 123.696 37.4008 123.562 37.1991Z" fill="#2D93AD"/>
<path d="M71.126 49.1709C70.5651 48.8826 69.9687 48.667 69.3518 48.5293C67.5164 48.13 65.5232 48.4984 63.4888 49.9931C63.3907 50.0702 63.294 50.1472 63.1974 50.2271C62.6129 50.7114 62.0703 51.2428 61.5752 51.8156C61.1726 52.2809 60.7976 52.7688 60.4521 53.2767C59.0304 55.3584 58.0352 57.7734 57.3244 60.1633C55.1179 67.7978 55.3766 76.9271 58.4247 84.3012C60.9695 90.5419 66.8056 96.113 73.0368 90.2071C77.963 85.2257 79.6206 77.6724 79.8509 70.8755C79.9405 65.027 78.9766 58.9361 75.8831 53.8637C74.9206 52.3059 73.7349 50.9345 72.3942 49.9525C71.9937 49.6586 71.5695 49.3972 71.126 49.1709ZM73.5301 72.2959L67.7126 75.6047L73.5202 78.9079C72.6188 83.4452 69.9248 86.7386 66.743 86.7386C62.822 86.7386 59.6431 81.7404 59.6431 75.5753C59.6431 69.4102 62.822 64.4134 66.743 64.4134C69.9376 64.4134 72.6387 67.732 73.5301 72.2959Z" fill="white"/>
<path d="M100.832 83.9145C100.892 84.2451 100.931 84.5792 100.947 84.9147C103.299 83.5699 105.317 80.9924 106.625 78.2229C108.63 74.138 109.571 69.5377 109.796 65.0031C110.009 59.3479 109.194 53.4252 106.297 48.4732C105.662 47.363 104.875 46.3448 103.957 45.4474C103.582 45.0842 103.18 44.7494 102.754 44.4458C102.218 44.0613 101.636 43.7424 101.021 43.496C99.2867 42.8124 97.3532 42.8264 95.3643 43.9541C95.3074 43.9863 95.2505 44.0171 95.1951 44.0522C94.6485 44.386 94.1328 44.7666 93.654 45.1896C93.2296 45.5621 92.8311 45.9622 92.4612 46.3874C91.2798 47.7406 90.35 49.3291 89.568 50.9877C85.9754 58.6083 85.4451 71.0282 89.595 79.2847C89.9334 79.1601 90.2775 79.0466 90.6258 78.9485C90.8277 78.8911 91.031 78.8421 91.2357 78.7972C90.1424 76.9019 89.4671 74.3075 89.4671 71.4442C89.4671 65.6405 92.2365 60.9379 95.6528 60.9379C98.4322 60.9379 100.784 64.052 101.563 68.3386L96.6722 71.1206L101.659 73.9573C101.268 76.6595 100.263 78.9513 98.9085 80.3788C99.844 81.2347 100.531 82.4044 100.832 83.9145Z" fill="white"/>
<path d="M4.69794 79.4752C4.69794 79.4752 5.83529 82.1368 9.81601 82.8372V80.4403" fill="#0A0A3C"/>
<path d="M129.734 44.2986C129.734 44.2986 129.296 46.6493 127.062 47.8007C124.829 48.9522 125.783 45.254 125.783 45.254" fill="#0A0A3C"/>
<path d="M206.333 32.3912C201.892 32.3912 198.294 35.94 198.294 40.3194C198.294 44.6989 201.892 48.2477 206.333 48.2477C210.773 48.2477 214.372 44.6989 214.372 40.3194C214.372 35.94 210.773 32.3912 206.333 32.3912ZM198.96 52.6422L199.986 95.3718H213.996L212.542 51.6531L198.96 52.6422ZM499.953 45.8617L479.657 93.8843L493.461 99.0717L496.316 91.521L515.893 90.9773L518.266 98.9509L531.894 95.402L513.596 45.4917L499.953 45.8692V45.8617ZM501.568 77.4766L507.219 62.3676L511.72 77.1897L501.576 77.469L501.568 77.4766ZM596.596 58.9244C591.941 58.6375 592.531 53.0877 596.459 52.4837C601.657 51.6455 606.741 53.7824 610.002 57.4218L617 47.5153C617 47.5153 603.962 34.377 588.113 43.0679C577.027 49.1387 579.63 61.4539 583.55 65.4785C589.583 71.6852 595.678 69.7748 599.322 70.4771C602.124 71.0509 602.989 73.822 602.415 75.5889C601.259 79.689 597.638 79.7041 593.978 79.0698C589.951 78.4506 584.569 74.5545 584.569 74.5545L577.793 86.2807C577.793 86.2807 586.582 96.5497 602.737 92.7668C611.388 90.6753 617.758 84.2345 616.165 72.8631C614.42 60.6083 604.207 59.3171 596.596 58.932V58.9244ZM318.617 42.7734L309.56 30.8055L286.362 53.0575L287.671 36.3327L273.798 35.857L269.496 88.0627L284.31 89.3161L285.153 74.7432L288.774 70.8621L303.749 92.7819L316.305 82.2562L299.676 61.2652L318.617 42.7734ZM153.008 40.7045L158.972 109.069L174.858 107.71L170.938 73.3463C170.938 73.3463 197.911 75.7852 194.672 49.5238C191.426 23.1944 157.854 33.0707 153 40.7045H153.008ZM169.621 60.797L168.075 46.4959C170.846 44.5629 181.81 41.15 183.089 52.4308C184.367 63.7116 169.621 60.797 169.621 60.797ZM242.837 81.1236C226.897 81.1236 227.609 55.957 242.477 55.957C247.553 55.957 252.553 58.2826 255.768 63.4322L266.992 56.8782C266.992 56.8782 259.627 38.8319 238.756 42.713C217.886 46.5186 216.531 66.3997 218.743 75.7022C220.458 83.2453 228.535 95.3718 244.835 95.3718C261.135 95.3718 267.138 77.6049 267.138 77.6049L255.776 73.2331C255.776 73.2331 251.772 81.1311 242.837 81.1311V81.1236ZM565.191 37.7748C557.504 31.3039 543.539 28.7819 529.682 37.5634L533.05 86.9377C533.05 86.9377 565.16 93.0688 573.061 75.3397C580.901 57.6861 573.176 44.4346 565.183 37.7673L565.191 37.7748ZM562.144 66.9358C558.254 75.6493 545.89 72.5837 545.89 72.5837L543.807 46.511C550.269 44.8801 555.07 44.7895 559.656 49.2369C564.31 53.6842 564.755 61.0009 562.144 66.9358ZM465.133 72.7951L465.332 65.1613L483.844 65.3652L485.468 54.3336L465.944 51.3435L466.212 45.9145L486.769 48.6554L490.138 35.3133L453.297 31.6738L450.234 85.1406L478.615 87.4209L479.97 74.0939L465.133 72.7951ZM428.483 29.1897L428.751 63.5606L413.691 64.7687L412.903 29.5294L395.914 30.7678L398.257 101.299L413.485 101.646L413.799 77.4237L428.889 77.5672L429.693 100.408L444.791 101.163L442.922 29.0688L428.483 29.1746V29.1897ZM368.061 76.948L367.142 69.3671L385.494 66.9358V55.7833L365.978 58.0486L365.205 50.1807L386.145 47.9683L387.324 36.2949L350.337 37.9259L355.114 91.2718L391.389 88.1231L390.784 74.7432L368.061 76.948ZM334.695 84.9292L331.702 46.2694L317.852 48.1495L320.976 99.5851L350.398 97.9391L349.533 83.6531L334.695 84.9367V84.9292Z" fill="white"/>
<path fill-rule="evenodd" clip-rule="evenodd" d="M626.11 46.2888V53.6689H628.03V51.1888H629.258L630.4 53.6689H632.5L631.103 50.8339C631.437 50.6457 631.709 50.3906 631.92 50.0688C632.16 49.7022 632.28 49.2588 632.28 48.7388C632.28 48.2188 632.163 47.7788 631.93 47.4188C631.703 47.0522 631.393 46.7722 631 46.5788C630.613 46.3855 630.187 46.2888 629.72 46.2888H626.11ZM628.03 49.7988H629.23C629.51 49.7988 629.75 49.7089 629.95 49.5289C630.157 49.3488 630.26 49.0822 630.26 48.7288C630.26 48.3622 630.157 48.1022 629.95 47.9489C629.75 47.7888 629.513 47.7088 629.24 47.7088H628.03V49.7988Z" fill="white"/>
<path fill-rule="evenodd" clip-rule="evenodd" d="M625.89 57.4489C626.857 57.8622 627.893 58.0688 629 58.0688C630.107 58.0688 631.143 57.8622 632.11 57.4489C633.077 57.0355 633.927 56.4622 634.66 55.7288C635.393 54.9955 635.967 54.1455 636.38 53.1788C636.793 52.2122 637 51.1755 637 50.0688C637 48.9622 636.793 47.9255 636.38 46.9589C635.967 45.9922 635.393 45.1422 634.66 44.4088C633.927 43.6755 633.077 43.1022 632.11 42.6888C631.143 42.2755 630.107 42.0688 629 42.0688C627.893 42.0688 626.857 42.2755 625.89 42.6888C624.923 43.1022 624.073 43.6755 623.34 44.4088C622.607 45.1422 622.033 45.9922 621.62 46.9589C621.207 47.9255 621 48.9622 621 50.0688C621 51.1755 621.207 52.2122 621.62 53.1788C622.033 54.1455 622.607 54.9955 623.34 55.7288C624.073 56.4622 624.923 57.0355 625.89 57.4489ZM631.97 55.1688C631.083 55.6955 630.093 55.9588 629 55.9588C627.92 55.9588 626.933 55.6955 626.04 55.1688C625.147 54.6355 624.437 53.9255 623.91 53.0388C623.383 52.1455 623.12 51.1555 623.12 50.0688C623.12 48.9822 623.383 47.9955 623.91 47.1089C624.437 46.2155 625.147 45.5055 626.04 44.9789C626.933 44.4455 627.92 44.1788 629 44.1788C630.087 44.1788 631.073 44.4455 631.96 44.9789C632.853 45.5055 633.563 46.2155 634.09 47.1089C634.623 47.9955 634.89 48.9822 634.89 50.0688C634.89 51.1555 634.627 52.1455 634.1 53.0388C633.573 53.9255 632.863 54.6355 631.97 55.1688Z" fill="white"/>
</svg>
